<?xml version="1.0" encoding="utf-8"?>
<!-- Generator: Adobe Illustrator 19.2.1, SVG Export Plug-In . SVG Version: 6.00 Build 0)  -->
<svg version="1.1" id="Capa_1" xmlns="http://www.w3.org/2000/svg" xmlns:xlink="http://www.w3.org/1999/xlink" x="0px" y="0px"
	 viewBox="0 0 212 150" style="enable-background:new 0 0 212 150;" xml:space="preserve">
<style type="text/css">
	.st0{fill:#61C759;}
	.st1{fill:#D9261C;}
</style>
<path d="M106.3,6.3c37.6,0,68.2,30.6,68.2,68.2c0,37.6-30.6,68.2-68.2,68.2c-37.6,0-68.2-30.6-68.2-68.2
	C38.2,36.9,68.8,6.3,106.3,6.3"/>
<path class="st0" d="M103.8,51.5c1-0.2,2.6-16.2-1.6-20.4c-4.2-4.2-11.2-6-12.8-8s-1.6-6.2-1.6-6.2s-3.2,13.8-0.4,21.8
	c3,8,9,5,11.6,9.4C101.5,51.9,103,51.7,103.8,51.5"/>
<path class="st1" d="M104.5,53.5c0,0,2.6,8.4-6.8,11.4c-9.4,3-28.6,9.4-28.6,31.2s21.6,31.2,39.4,31.6c17.8,0.4,45.4-8.2,46.4-45.2
	s-46.2-48.8-46.2-48.8s-1,21.4,1,30.2s13.8,21,16.6,25.4s11,34.6-18,34S82,99.4,87.2,90.2s15.2-14.4,17.2-22.8
	C106.5,58.9,104.5,53.5,104.5,53.5"/>
</svg>
